<svg xmlns="http://www.w3.org/2000/svg" width="37" height="40.369" viewBox="0 0 37 40.369">
  <g id="Group_27574" data-name="Group 27574" transform="translate(-665 -654.725)">
    <g id="Group_27571" data-name="Group 27571" transform="translate(665 654.725)">
      <g id="Group_436" data-name="Group 436">
        <g id="Group_434" data-name="Group 434">
          <g id="Elipse" transform="translate(0 3.403)" fill="none" stroke="#2f3347" stroke-width="2">
            <ellipse cx="18.5" cy="18.483" rx="18.5" ry="18.483" stroke="none"/>
            <ellipse cx="18.5" cy="18.483" rx="17.5" ry="17.483" fill="none"/>
          </g>
          <g id="Elipse_" data-name="Elipse " fill="none" stroke="#2f3347" stroke-width="2">
            <ellipse cx="18.5" cy="18.483" rx="18.5" ry="18.483" stroke="none"/>
            <ellipse cx="18.5" cy="18.483" rx="17.5" ry="17.483" fill="none"/>
          </g>
        </g>
        <path id="Icon_weather-direction-left" data-name="Icon weather-direction-left" d="M21.531,16.045a1,1,0,0,1-.3.757L18.066,19.89a.9.9,0,0,1-.7.313,1.026,1.026,0,0,1-.733-.288,1.024,1.024,0,0,1,0-1.457l1.35-1.35H9.5a.928.928,0,0,1-.716-.3,1.12,1.12,0,0,1,0-1.482A.972.972,0,0,1,9.5,15h8.479l-1.35-1.367a1,1,0,0,1,0-1.441,1.033,1.033,0,0,1,.741-.313.921.921,0,0,1,.7.338L21.235,15.3A1.018,1.018,0,0,1,21.531,16.045Z" transform="translate(3.492 4.12)" fill="#1f0469"/>
      </g>
      <g id="Group_439" data-name="Group 439">
        <g id="Elipse_2" data-name="Elipse " fill="#df0" stroke="#2f3347" stroke-width="2">
          <ellipse cx="18.5" cy="18.483" rx="18.5" ry="18.483" stroke="none"/>
          <ellipse cx="18.5" cy="18.483" rx="17.5" ry="17.483" fill="none"/>
        </g>
      </g>
    </g>
    <path id="Icon_awesome-arrow-right" data-name="Icon awesome-arrow-right" d="M6.089,3.582l.71-.71a.764.764,0,0,1,1.083,0l6.213,6.21a.764.764,0,0,1,0,1.083L7.882,16.379a.764.764,0,0,1-1.083,0l-.71-.71a.768.768,0,0,1,.013-1.1L9.953,10.9H.767A.765.765,0,0,1,0,10.137V9.115a.765.765,0,0,1,.767-.767H9.953L6.1,4.678A.762.762,0,0,1,6.089,3.582Z" transform="translate(676 663.304)"/>
  </g>
</svg>
