<?xml version="1.0" encoding="UTF-8"?>
<svg xmlns="http://www.w3.org/2000/svg" onmouseup="{ if(window.parent.document.onmouseup) window.parent.document.onmouseup(arguments[0]);}" viewBox="0 0 37 40.369" height="40.369" width="37"><g transform="translate(-665 -654.725)" data-name="Group 27574" id="Group_27574"><g transform="translate(665 654.725)" data-name="Group 27571" id="Group_27571"><g data-name="Group 436" id="Group_436"><g data-name="Group 434" id="Group_434"><g stroke-width="2" stroke="#2f3347" fill="none" transform="translate(0 3.403)" id="Elipse"><ellipse data-cppathid="10000" stroke="none" ry="18.483" rx="18.5" cy="18.483" cx="18.5"/><ellipse data-cppathid="10001" fill="none" ry="17.483" rx="17.5" cy="18.483" cx="18.5"/></g><g stroke-width="2" stroke="#2f3347" fill="none" data-name="Elipse " id="Elipse_"><ellipse data-cppathid="10002" stroke="none" ry="18.483" rx="18.5" cy="18.483" cx="18.5"/><ellipse data-cppathid="10003" fill="none" ry="17.483" rx="17.5" cy="18.483" cx="18.5"/></g></g><path data-cppathid="10004" fill="#1f0469" transform="translate(3.492 4.12)" d="M21.531,16.045a1,1,0,0,1-.3.757L18.066,19.89a.9.9,0,0,1-.7.313,1.026,1.026,0,0,1-.733-.288,1.024,1.024,0,0,1,0-1.457l1.35-1.35H9.5a.928.928,0,0,1-.716-.3,1.12,1.12,0,0,1,0-1.482A.972.972,0,0,1,9.5,15h8.479l-1.35-1.367a1,1,0,0,1,0-1.441,1.033,1.033,0,0,1,.741-.313.921.921,0,0,1,.7.338L21.235,15.3A1.018,1.018,0,0,1,21.531,16.045Z" data-name="Icon weather-direction-left" id="Icon_weather-direction-left"/></g><g data-name="Group 439" id="Group_439"><g stroke-width="2" stroke="#2f3347" fill="#df0" data-name="Elipse " id="Elipse_2"><ellipse data-cppathid="10005" stroke="none" ry="18.483" rx="18.5" cy="18.483" cx="18.5"/><ellipse data-cppathid="10006" fill="none" ry="17.483" rx="17.5" cy="18.483" cx="18.5"/></g></g></g><path data-cppathid="10007" transform="translate(676 663.304)" d="M6.089,3.582l.71-.71a.764.764,0,0,1,1.083,0l6.213,6.21a.764.764,0,0,1,0,1.083L7.882,16.379a.764.764,0,0,1-1.083,0l-.71-.71a.768.768,0,0,1,.013-1.1L9.953,10.9H.767A.765.765,0,0,1,0,10.137V9.115a.765.765,0,0,1,.767-.767H9.953L6.1,4.678A.762.762,0,0,1,6.089,3.582Z" data-name="Icon awesome-arrow-right" id="Icon_awesome-arrow-right"/></g></svg>